<?xml version="1.0" encoding="UTF-8"?>
<svg xmlns="http://www.w3.org/2000/svg" xmlns:xlink="http://www.w3.org/1999/xlink" width="248" height="256" viewBox="0 0 248 256">
<path fill-rule="nonzero" fill="rgb(0%, 0%, 0%)" fill-opacity="1" d="M 82.949219 198.699219 C 82.949219 199.699219 81.800781 200.5 80.351562 200.5 C 78.699219 200.648438 77.550781 199.851562 77.550781 198.699219 C 77.550781 197.699219 78.699219 196.898438 80.148438 196.898438 C 81.648438 196.75 82.949219 197.550781 82.949219 198.699219 Z M 67.398438 196.449219 C 67.050781 197.449219 68.050781 198.601562 69.550781 198.898438 C 70.851562 199.398438 72.351562 198.898438 72.648438 197.898438 C 72.949219 196.898438 72 195.75 70.5 195.300781 C 69.199219 194.949219 67.75 195.449219 67.398438 196.449219 Z M 89.5 195.601562 C 88.050781 195.949219 87.050781 196.898438 87.199219 198.050781 C 87.351562 199.050781 88.648438 199.699219 90.148438 199.351562 C 91.601562 199 92.601562 198.050781 92.449219 197.050781 C 92.300781 196.101562 90.949219 195.449219 89.5 195.601562 Z M 122.398438 4 C 53.050781 4 0 56.648438 0 126 C 0 181.449219 34.898438 228.898438 84.75 245.601562 C 91.148438 246.75 93.398438 242.800781 93.398438 239.550781 C 93.398438 236.449219 93.25 219.351562 93.25 208.851562 C 93.25 208.851562 58.25 216.351562 50.898438 193.949219 C 50.898438 193.949219 45.199219 179.398438 37 175.648438 C 37 175.648438 25.550781 167.800781 37.800781 167.949219 C 37.800781 167.949219 50.25 168.949219 57.101562 180.851562 C 68.050781 200.148438 86.398438 194.601562 93.550781 191.300781 C 94.699219 183.300781 97.949219 177.75 101.550781 174.449219 C 73.601562 171.351562 45.398438 167.300781 45.398438 119.199219 C 45.398438 105.449219 49.199219 98.550781 57.199219 89.75 C 55.898438 86.5 51.648438 73.101562 58.5 55.800781 C 68.949219 52.550781 93 69.300781 93 69.300781 C 103 66.5 113.75 65.050781 124.398438 65.050781 C 135.050781 65.050781 145.800781 66.5 155.800781 69.300781 C 155.800781 69.300781 179.851562 52.5 190.300781 55.800781 C 197.148438 73.148438 192.898438 86.5 191.601562 89.75 C 199.601562 98.601562 204.5 105.5 204.5 119.199219 C 204.5 167.449219 175.050781 171.300781 147.101562 174.449219 C 151.699219 178.398438 155.601562 185.898438 155.601562 197.648438 C 155.601562 214.5 155.449219 235.351562 155.449219 239.449219 C 155.449219 242.699219 157.75 246.648438 164.101562 245.5 C 214.101562 228.898438 248 181.449219 248 126 C 248 56.648438 191.75 4 122.398438 4 Z M 48.601562 176.449219 C 47.949219 176.949219 48.101562 178.101562 48.949219 179.050781 C 49.75 179.851562 50.898438 180.199219 51.550781 179.550781 C 52.199219 179.050781 52.050781 177.898438 51.199219 176.949219 C 50.398438 176.148438 49.25 175.800781 48.601562 176.449219 Z M 43.199219 172.398438 C 42.851562 173.050781 43.351562 173.851562 44.351562 174.351562 C 45.148438 174.851562 46.148438 174.699219 46.5 174 C 46.851562 173.351562 46.351562 172.550781 45.351562 172.050781 C 44.351562 171.75 43.550781 171.898438 43.199219 172.398438 Z M 59.398438 190.199219 C 58.601562 190.851562 58.898438 192.351562 60.050781 193.300781 C 61.199219 194.449219 62.648438 194.601562 63.300781 193.800781 C 63.949219 193.148438 63.648438 191.648438 62.648438 190.699219 C 61.550781 189.550781 60.050781 189.398438 59.398438 190.199219 Z M 53.699219 182.851562 C 52.898438 183.351562 52.898438 184.648438 53.699219 185.800781 C 54.5 186.949219 55.851562 187.449219 56.5 186.949219 C 57.300781 186.300781 57.300781 185 56.5 183.851562 C 55.800781 182.699219 54.5 182.199219 53.699219 182.851562 Z M 53.699219 182.851562 "/>
</svg>
