<?xml version="1.0" encoding="UTF-8"?>
<svg xmlns="http://www.w3.org/2000/svg" xmlns:xlink="http://www.w3.org/1999/xlink" width="256" height="256" viewBox="0 0 256 256">
<path fill-rule="nonzero" fill="rgb(67.843137%, 84.705882%, 90.196078%)" fill-opacity="1" d="M 251.761719 120.738281 C 251.699219 119.960938 251.640625 119.179688 251.640625 118.398438 L 251.640625 118.339844 L 251.460938 116 L 251.460938 115.941406 C 250.828125 108.988281 249.601562 102.105469 247.800781 95.363281 C 247.800781 95.304688 247.800781 95.304688 247.738281 95.246094 L 247.199219 93.246094 C 247.140625 93.125 247.140625 93.003906 247.078125 92.945312 C 246.898438 92.34375 246.71875 91.683594 246.539062 91.085938 C 246.480469 90.964844 246.480469 90.785156 246.421875 90.664062 C 246.238281 90.066406 246.058594 89.464844 245.878906 88.925781 C 245.820312 88.746094 245.761719 88.625 245.699219 88.425781 C 245.519531 87.824219 245.339844 87.285156 245.101562 86.683594 L 244.921875 86.144531 C 244.738281 85.605469 244.5 85.003906 244.320312 84.464844 C 244.269531 84.292969 244.210938 84.128906 244.140625 83.964844 C 243.898438 83.425781 243.71875 82.824219 243.480469 82.285156 C 243.421875 82.164062 243.359375 81.984375 243.300781 81.863281 C 243.058594 81.265625 242.800781 80.726562 242.578125 80.125 C 242.578125 80.066406 242.519531 80.003906 242.519531 79.945312 C 241.738281 78.023438 240.898438 76.105469 240.019531 74.246094 L 239.839844 73.886719 C 239.601562 73.386719 239.421875 72.984375 239.179688 72.566406 C 239.058594 72.324219 238.941406 72.023438 238.820312 71.785156 C 238.640625 71.363281 238.398438 71.003906 238.21875 70.585938 C 238.039062 70.285156 237.921875 69.984375 237.71875 69.683594 C 237.519531 69.386719 237.300781 68.964844 237.121094 68.546875 C 236.941406 68.246094 236.761719 67.886719 236.578125 67.585938 C 236.398438 67.285156 236.160156 66.863281 235.980469 66.503906 C 235.800781 66.160156 235.601562 65.824219 235.378906 65.503906 C 235.199219 65.144531 234.960938 64.84375 234.78125 64.503906 C 234.601562 64.164062 234.359375 63.84375 234.179688 63.503906 C 234 63.164062 233.761719 62.84375 233.578125 62.546875 C 233.398438 62.246094 233.160156 61.824219 232.921875 61.464844 C 232.742188 61.152344 232.539062 60.851562 232.320312 60.566406 L 231.601562 59.5 C 231.421875 59.1875 231.21875 58.886719 231 58.601562 C 230.761719 58.238281 230.460938 57.820312 230.21875 57.460938 C 230.039062 57.21875 229.859375 56.921875 229.679688 56.679688 L 228.78125 55.421875 C 228.601562 55.179688 228.480469 55 228.28125 54.761719 C 227.78125 54.101562 227.378906 53.5 226.898438 52.898438 C 223.304688 48.183594 219.375 43.734375 215.144531 39.578125 C 212.285156 36.597656 209.230469 33.808594 206 31.230469 C 204 29.488281 201.921875 27.871094 199.761719 26.308594 C 195.890625 23.429688 191.777344 20.898438 187.460938 18.75 C 186.261719 18.089844 185.058594 17.488281 183.859375 16.890625 C 175.03125 12.570312 165.730469 9.285156 156.144531 7.109375 C 155.183594 6.929688 154.226562 6.691406 153.324219 6.511719 L 153.265625 6.511719 C 152.765625 6.449219 152.363281 6.328125 151.886719 6.269531 C 145.617188 5.089844 139.261719 4.421875 132.886719 4.269531 L 127.570312 4.269531 C 119.925781 4.359375 112.308594 5.199219 104.828125 6.769531 C 88.035156 10.308594 73.214844 17.390625 63.375 26.269531 C 62.835938 26.769531 62.414062 27.109375 62.175781 27.351562 L 61.933594 27.589844 L 62 27.589844 L 61.941406 27.648438 L 62 27.589844 C 62.03125 27.589844 62.058594 27.5625 62.058594 27.53125 L 62 27.589844 C 62.03125 27.558594 62.074219 27.535156 62.121094 27.53125 C 69.441406 23.148438 79.578125 19.53125 86.839844 17.75 L 89.78125 17.03125 C 89.960938 16.96875 90.199219 16.96875 90.378906 16.910156 C 91.21875 16.730469 92.058594 16.550781 92.960938 16.371094 C 93.078125 16.371094 93.261719 16.308594 93.378906 16.308594 C 125.46875 10.46875 159.671875 20.070312 183.5 42.804688 C 188.640625 47.6875 193.15625 53.191406 196.941406 59.183594 C 212.121094 83.785156 210.679688 114.738281 198.859375 132.980469 C 181.640625 159.480469 143.183594 168.613281 119.359375 145.398438 C 111.363281 137.644531 106.769531 127.035156 106.578125 115.898438 C 106.492188 110.570312 107.554688 105.28125 109.699219 100.398438 C 110.539062 98.480469 116.238281 87.566406 118.820312 88.105469 C 112.28125 86.726562 100.046875 89.425781 91.464844 102.199219 C 83.785156 113.660156 84.203125 131.300781 88.964844 143.839844 C 85.941406 137.652344 83.894531 131.035156 82.90625 124.21875 C 76.785156 82.945312 104.558594 47.71875 130.058594 38.964844 C 116.320312 26.964844 81.824219 27.808594 56.203125 46.644531 C 41.265625 57.644531 30.589844 73.226562 24.949219 91.824219 C 25.789062 81.386719 29.75 65.785156 37.851562 49.886719 C 29.269531 54.324219 18.351562 68.386719 12.949219 81.324219 C 5.148438 100.039062 2.449219 122.421875 4.910156 143.71875 C 5.089844 145.339844 5.269531 146.898438 5.449219 148.519531 C 15.410156 207.074219 66.449219 251.710938 127.839844 251.710938 C 196.386719 251.710938 252 196.09375 252 127.5 C 251.941406 125.238281 251.878906 122.960938 251.761719 120.738281 Z M 251.761719 120.738281 "/>
</svg>
