<?xml version="1.0" encoding="UTF-8"?>
<svg xmlns="http://www.w3.org/2000/svg" xmlns:xlink="http://www.w3.org/1999/xlink" width="256" height="256" viewBox="0 0 256 256">
<path fill-rule="nonzero" fill="rgb(67.843137%, 84.705882%, 90.196078%)" fill-opacity="1" d="M 0 128 C 0 104.699219 6.234375 82.800781 17.136719 63.550781 L 72.050781 159.148438 C 83 178.75 103.949219 192 128 192 C 135.148438 192 141.550781 190.851562 148.398438 188.699219 L 110.25 254.800781 C 47.949219 246.148438 0 192.648438 0 128 Z M 182.550781 160.800781 C 188.699219 151.199219 192 139.550781 192 128 C 192 108.898438 183.601562 91.75 170.351562 80 L 246.699219 80 C 252.699219 94.800781 256 111.050781 256 128 C 256 198.699219 198.699219 255.550781 128 256 Z M 238.898438 64 L 128 64 C 96.550781 64 71.148438 86.050781 65.25 115.351562 L 27.09375 49.234375 C 50.5 19.265625 87 0 128 0 C 175.398438 0 216.75 25.738281 238.898438 64 Z M 84 128 C 84 103.699219 103.699219 84 128 84 C 152.300781 84 172 103.699219 172 128 C 172 152.300781 152.300781 172 128 172 C 103.699219 172 84 152.300781 84 128 Z M 84 128 "/>
</svg>
