<?xml version="1.0" encoding="UTF-8"?>
<svg xmlns="http://www.w3.org/2000/svg" xmlns:xlink="http://www.w3.org/1999/xlink" width="256" height="256" viewBox="0 0 256 256">
<path fill-rule="nonzero" fill="rgb(67.843137%, 84.705882%, 90.196078%)" fill-opacity="1" d="M 137.34375 137.34375 L 118.65625 118.65625 L 83 173 Z M 128 4 C 59.5 4 4 59.5 4 128 C 4 196.5 59.5 252 128 252 C 196.5 252 252 196.5 252 128 C 252 59.5 196.5 4 128 4 Z M 205.925781 91.394531 L 213.316406 88.328125 C 215.355469 87.484375 217.695312 88.457031 218.539062 90.5 C 218.945312 91.480469 218.949219 92.582031 218.542969 93.5625 C 218.136719 94.542969 217.355469 95.324219 216.375 95.730469 L 209 98.785156 C 206.960938 99.628906 204.621094 98.660156 203.773438 96.621094 C 202.929688 94.582031 203.890625 92.246094 205.925781 91.394531 Z M 157.214844 47 L 160.273438 39.609375 C 161.125 37.574219 163.464844 36.613281 165.5 37.460938 C 167.539062 38.304688 168.507812 40.644531 167.664062 42.683594 L 164.601562 50.074219 C 163.753906 52.117188 161.414062 53.085938 159.375 52.238281 C 158.390625 51.832031 157.613281 51.050781 157.207031 50.070312 C 156.800781 49.085938 156.804688 47.980469 157.214844 47 Z M 128 30 C 130.210938 30 132 31.789062 132 34 L 132 42 C 132 44.210938 130.210938 46 128 46 C 125.789062 46 124 44.210938 124 42 L 124 34 C 124 31.789062 125.789062 30 128 30 Z M 90.5 37.460938 C 91.480469 37.054688 92.582031 37.050781 93.5625 37.457031 C 94.542969 37.863281 95.324219 38.644531 95.730469 39.625 L 98.785156 47 C 99.363281 48.328125 99.183594 49.863281 98.308594 51.015625 C 97.433594 52.171875 96.003906 52.761719 94.570312 52.5625 C 93.136719 52.367188 91.921875 51.40625 91.394531 50.058594 L 88.328125 42.671875 C 87.496094 40.632812 88.464844 38.304688 90.5 37.460938 Z M 58.710938 58.703125 C 60.273438 57.144531 62.804688 57.144531 64.363281 58.703125 L 70 64.359375 C 71.550781 65.921875 71.550781 68.441406 70 70 C 68.4375 71.5625 65.90625 71.5625 64.34375 70 L 58.691406 64.34375 C 57.144531 62.78125 57.148438 60.261719 58.703125 58.703125 Z M 30 128 C 30 125.789062 31.789062 124 34 124 L 42 124 C 44.210938 124 46 125.789062 46 128 C 46 130.210938 44.210938 132 42 132 L 34 132 C 31.789062 132 30 130.210938 30 128 Z M 50.074219 164.605469 L 42.683594 167.671875 C 40.644531 168.515625 38.304688 167.542969 37.460938 165.5 C 37.054688 164.519531 37.050781 163.417969 37.457031 162.4375 C 37.863281 161.457031 38.644531 160.675781 39.625 160.269531 L 47 157.214844 C 49.039062 156.371094 51.378906 157.339844 52.226562 159.378906 C 53.070312 161.417969 52.109375 163.753906 50.074219 164.605469 Z M 52.238281 96.605469 C 51.835938 97.589844 51.058594 98.375 50.074219 98.785156 C 49.089844 99.195312 47.984375 99.195312 47 98.785156 L 39.609375 95.726562 C 37.574219 94.875 36.613281 92.535156 37.460938 90.5 C 38.304688 88.460938 40.644531 87.492188 42.683594 88.335938 L 50.074219 91.398438 C 52.113281 92.246094 53.082031 94.582031 52.238281 96.621094 Z M 98.785156 209 L 95.726562 216.390625 C 94.878906 218.433594 92.539062 219.402344 90.496094 218.558594 C 88.457031 217.710938 87.484375 215.371094 88.328125 213.328125 L 91.394531 205.941406 C 91.921875 204.59375 93.136719 203.632812 94.570312 203.4375 C 96.003906 203.238281 97.433594 203.828125 98.308594 204.984375 C 99.183594 206.136719 99.363281 207.671875 98.785156 209 Z M 132 222 C 132 224.210938 130.210938 226 128 226 C 125.789062 226 124 224.210938 124 222 L 124 214 C 124 211.789062 125.789062 210 128 210 C 130.210938 210 132 211.789062 132 214 Z M 165.5 218.539062 C 164.519531 218.945312 163.417969 218.949219 162.4375 218.542969 C 161.457031 218.136719 160.675781 217.355469 160.269531 216.375 L 157.214844 209 C 156.371094 206.960938 157.339844 204.621094 159.378906 203.773438 C 161.421875 202.929688 163.757812 203.898438 164.605469 205.941406 L 167.671875 213.328125 C 168.503906 215.367188 167.535156 217.695312 165.5 218.539062 Z M 197.289062 197.296875 C 195.726562 198.855469 193.195312 198.855469 191.636719 197.296875 L 186 191.640625 C 184.449219 190.078125 184.449219 187.558594 186 186 C 187.5625 184.4375 190.09375 184.4375 191.65625 186 L 197.308594 191.65625 C 198.855469 193.21875 198.851562 195.738281 197.296875 197.296875 Z M 143.125 143.125 L 55.171875 200.828125 L 112.875 112.875 L 200.828125 55.171875 Z M 218.539062 165.5 C 217.695312 167.539062 215.355469 168.507812 213.316406 167.664062 L 205.925781 164.601562 C 203.882812 163.753906 202.914062 161.414062 203.761719 159.375 C 204.167969 158.390625 204.949219 157.613281 205.929688 157.207031 C 206.914062 156.800781 208.019531 156.804688 209 157.214844 L 216.390625 160.273438 C 218.425781 161.125 219.386719 163.464844 218.539062 165.5 Z M 222 132 L 214 132 C 211.789062 132 210 130.210938 210 128 C 210 125.789062 211.789062 124 214 124 L 222 124 C 224.210938 124 226 125.789062 226 128 C 226 130.210938 224.210938 132 222 132 Z M 222 132 "/>
</svg>
