<?xml version="1.0" encoding="UTF-8"?>
<svg xmlns="http://www.w3.org/2000/svg" xmlns:xlink="http://www.w3.org/1999/xlink" width="256" height="256" viewBox="0 0 256 256">
<path fill-rule="nonzero" fill="rgb(67.843137%, 84.705882%, 90.196078%)" fill-opacity="1" d="M 60.050781 18.71875 C 80.550781 6.113281 103.851562 -0.386719 127.5 0 C 211.5 0 256 61.898438 256 109.75 C 255.949219 126.101562 249.5 141.699219 238.050781 153.351562 C 226.601562 164.949219 211.050781 171.601562 194.699219 171.851562 C 157.101562 171.851562 148.949219 160.300781 148.949219 155.851562 C 148.949219 153.949219 149.550781 152.75 151.351562 151.148438 L 151.851562 150.550781 L 152.050781 149.75 C 157.300781 144 160 136.648438 160 128.949219 C 160 89.601562 118.898438 57.601562 68 57.601562 C 49.230469 57.449219 30.730469 62.050781 14.238281 71.050781 C 27.738281 42.289062 55.601562 22.25 59.898438 19.140625 C 60.300781 18.863281 60.050781 18.71875 60.050781 18.71875 Z M 67.851562 177.75 C 67.148438 192.75 70.148438 207.75 76.050781 221.351562 C 82.851562 234.550781 92.398438 246.851562 104.300781 256 C 74.550781 250.25 48.554688 234.050781 29.601562 211.351562 C 10.558594 188.148438 0 159.199219 0 128.949219 C 0 103.351562 31.199219 81.75 68 81.75 C 86.300781 81.449219 104.199219 87.199219 118.898438 98.101562 L 117.101562 98.699219 C 91.351562 107.5 67.851562 144.050781 67.851562 177.75 Z M 234.898438 200 L 234.550781 200.050781 C 228.648438 209.449219 221.601562 217.601562 213.449219 224.800781 C 198.050781 238.800781 179.398438 247.550781 159.050781 249.75 C 149.75 249.898438 140.648438 248.148438 132.148438 244.050781 C 119.351562 238.898438 108.601562 229.050781 101.351562 217.550781 C 94.148438 205.601562 90.800781 191.699219 91.851562 177.75 C 91.550781 167.699219 94.550781 157.601562 99.351562 148.648438 C 106.300781 165.199219 118.101562 179.300781 133.148438 189.050781 C 148.199219 198.800781 165.898438 203.800781 183.851562 203.351562 C 199.351562 203.5 214.898438 200 228.949219 193.101562 L 229.898438 192.648438 C 231.851562 191.5 233.75 190.699219 235.699219 192.648438 C 237.949219 195.101562 236.601562 197.25 235.101562 199.648438 C 235 199.75 234.949219 199.898438 234.898438 200 Z M 234.898438 200 "/>
</svg>
